<?xml version="1.0" encoding="UTF-8" standalone="no"?>
<!DOCTYPE svg PUBLIC "-//W3C//DTD SVG 1.1//EN"
 "http://www.w3.org/Graphics/SVG/1.1/DTD/svg11.dtd">
<!-- Generated by graphviz version 14.1.2 (0)
 -->
<!-- Pages: 1 -->
<svg width="1795pt" height="210pt"
 viewBox="0.00 0.00 1795.00 210.00" xmlns="http://www.w3.org/2000/svg" xmlns:xlink="http://www.w3.org/1999/xlink">
<g id="graph0" class="graph" transform="scale(1 1) rotate(0) translate(4 206)">
<polygon fill="white" stroke="none" points="-4,4 -4,-206 1790.69,-206 1790.69,4 -4,4"/>
<!-- 140438186052640 -->
<g id="node1" class="node">
<title>140438186052640</title>
<polygon fill="none" stroke="black" points="797.25,-137.5 797.25,-173.5 1026.75,-173.5 1026.75,-137.5 797.25,-137.5"/>
<text xml:space="preserve" text-anchor="middle" x="809.75" y="-151.2" font-family="Times,serif" font-size="14.00">b</text>
<polyline fill="none" stroke="black" points="822.25,-138.25 822.25,-173.5"/>
<text xml:space="preserve" text-anchor="middle" x="873" y="-151.2" font-family="Times,serif" font-size="14.00">data 6.8814</text>
<polyline fill="none" stroke="black" points="923.75,-138.25 923.75,-173.5"/>
<text xml:space="preserve" text-anchor="middle" x="975.25" y="-151.2" font-family="Times,serif" font-size="14.00">grad 0.5000</text>
</g>
<!-- 140438197495120+ -->
<g id="node9" class="node">
<title>140438197495120+</title>
<ellipse fill="none" stroke="black" cx="1125.75" cy="-127.5" rx="27" ry="18"/>
<text xml:space="preserve" text-anchor="middle" x="1125.75" y="-122.83" font-family="Times,serif" font-size="14.00">+</text>
</g>
<!-- 140438186052640&#45;&gt;140438197495120+ -->
<g id="edge12" class="edge">
<title>140438186052640&#45;&gt;140438197495120+</title>
<path fill="none" stroke="black" d="M1027.24,-140.39C1049.14,-137.5 1070.57,-134.66 1087.73,-132.4"/>
<polygon fill="black" stroke="black" points="1087.92,-135.9 1097.38,-131.12 1087.01,-128.96 1087.92,-135.9"/>
</g>
<!-- 140438194459216 -->
<g id="node2" class="node">
<title>140438194459216</title>
<polygon fill="none" stroke="black" points="372,-110.5 372,-146.5 635.25,-146.5 635.25,-110.5 372,-110.5"/>
<text xml:space="preserve" text-anchor="middle" x="399.12" y="-124.2" font-family="Times,serif" font-size="14.00">x1w1</text>
<polyline fill="none" stroke="black" points="426.25,-111.25 426.25,-146.5"/>
<text xml:space="preserve" text-anchor="middle" x="479.25" y="-124.2" font-family="Times,serif" font-size="14.00">data &#45;6.0000</text>
<polyline fill="none" stroke="black" points="532.25,-111.25 532.25,-146.5"/>
<text xml:space="preserve" text-anchor="middle" x="583.75" y="-124.2" font-family="Times,serif" font-size="14.00">grad 0.5000</text>
</g>
<!-- 140438184265936+ -->
<g id="node6" class="node">
<title>140438184265936+</title>
<ellipse fill="none" stroke="black" cx="698.25" cy="-100.5" rx="27" ry="18"/>
<text xml:space="preserve" text-anchor="middle" x="698.25" y="-95.83" font-family="Times,serif" font-size="14.00">+</text>
</g>
<!-- 140438194459216&#45;&gt;140438184265936+ -->
<g id="edge6" class="edge">
<title>140438194459216&#45;&gt;140438184265936+</title>
<path fill="none" stroke="black" d="M631.77,-110.02C642,-108.53 651.71,-107.12 660.37,-105.86"/>
<polygon fill="black" stroke="black" points="660.59,-109.37 669.98,-104.46 659.58,-102.44 660.59,-109.37"/>
</g>
<!-- 140438194459216* -->
<g id="node3" class="node">
<title>140438194459216*</title>
<ellipse fill="none" stroke="black" cx="309" cy="-128.5" rx="27" ry="18"/>
<text xml:space="preserve" text-anchor="middle" x="309" y="-123.83" font-family="Times,serif" font-size="14.00">*</text>
</g>
<!-- 140438194459216*&#45;&gt;140438194459216 -->
<g id="edge1" class="edge">
<title>140438194459216*&#45;&gt;140438194459216</title>
<path fill="none" stroke="black" d="M336.38,-128.5C343.41,-128.5 351.51,-128.5 360.28,-128.5"/>
<polygon fill="black" stroke="black" points="360.21,-132 370.21,-128.5 360.21,-125 360.21,-132"/>
</g>
<!-- 140438182365344 -->
<g id="node4" class="node">
<title>140438182365344</title>
<polygon fill="none" stroke="black" points="2.25,-55.5 2.25,-91.5 243.75,-91.5 243.75,-55.5 2.25,-55.5"/>
<text xml:space="preserve" text-anchor="middle" x="20.75" y="-69.2" font-family="Times,serif" font-size="14.00">w2</text>
<polyline fill="none" stroke="black" points="39.25,-56.25 39.25,-91.5"/>
<text xml:space="preserve" text-anchor="middle" x="90" y="-69.2" font-family="Times,serif" font-size="14.00">data 1.0000</text>
<polyline fill="none" stroke="black" points="140.75,-56.25 140.75,-91.5"/>
<text xml:space="preserve" text-anchor="middle" x="192.25" y="-69.2" font-family="Times,serif" font-size="14.00">grad 0.0000</text>
</g>
<!-- 140438196125168* -->
<g id="node15" class="node">
<title>140438196125168*</title>
<ellipse fill="none" stroke="black" cx="309" cy="-73.5" rx="27" ry="18"/>
<text xml:space="preserve" text-anchor="middle" x="309" y="-68.83" font-family="Times,serif" font-size="14.00">*</text>
</g>
<!-- 140438182365344&#45;&gt;140438196125168* -->
<g id="edge8" class="edge">
<title>140438182365344&#45;&gt;140438196125168*</title>
<path fill="none" stroke="black" d="M244.16,-73.5C253.4,-73.5 262.22,-73.5 270.19,-73.5"/>
<polygon fill="black" stroke="black" points="270.08,-77 280.08,-73.5 270.08,-70 270.08,-77"/>
</g>
<!-- 140438184265936 -->
<g id="node5" class="node">
<title>140438184265936</title>
<polygon fill="none" stroke="black" points="761.25,-82.5 761.25,-118.5 1062.75,-118.5 1062.75,-82.5 761.25,-82.5"/>
<text xml:space="preserve" text-anchor="middle" x="807.5" y="-96.2" font-family="Times,serif" font-size="14.00">x1w1x2w2</text>
<polyline fill="none" stroke="black" points="853.75,-83.25 853.75,-118.5"/>
<text xml:space="preserve" text-anchor="middle" x="906.75" y="-96.2" font-family="Times,serif" font-size="14.00">data &#45;6.0000</text>
<polyline fill="none" stroke="black" points="959.75,-83.25 959.75,-118.5"/>
<text xml:space="preserve" text-anchor="middle" x="1011.25" y="-96.2" font-family="Times,serif" font-size="14.00">grad 0.5000</text>
</g>
<!-- 140438184265936&#45;&gt;140438197495120+ -->
<g id="edge9" class="edge">
<title>140438184265936&#45;&gt;140438197495120+</title>
<path fill="none" stroke="black" d="M1058.04,-118.99C1068.6,-120.34 1078.55,-121.61 1087.39,-122.74"/>
<polygon fill="black" stroke="black" points="1086.83,-126.19 1097.2,-123.99 1087.72,-119.25 1086.83,-126.19"/>
</g>
<!-- 140438184265936+&#45;&gt;140438184265936 -->
<g id="edge2" class="edge">
<title>140438184265936+&#45;&gt;140438184265936</title>
<path fill="none" stroke="black" d="M725.64,-100.5C732.73,-100.5 740.95,-100.5 749.9,-100.5"/>
<polygon fill="black" stroke="black" points="749.63,-104 759.63,-100.5 749.63,-97 749.63,-104"/>
</g>
<!-- 140438185915600 -->
<g id="node7" class="node">
<title>140438185915600</title>
<polygon fill="none" stroke="black" points="1.88,-165.5 1.88,-201.5 244.12,-201.5 244.12,-165.5 1.88,-165.5"/>
<text xml:space="preserve" text-anchor="middle" x="18.5" y="-179.2" font-family="Times,serif" font-size="14.00">x1</text>
<polyline fill="none" stroke="black" points="35.12,-166.25 35.12,-201.5"/>
<text xml:space="preserve" text-anchor="middle" x="85.88" y="-179.2" font-family="Times,serif" font-size="14.00">data 2.0000</text>
<polyline fill="none" stroke="black" points="136.62,-166.25 136.62,-201.5"/>
<text xml:space="preserve" text-anchor="middle" x="190.38" y="-179.2" font-family="Times,serif" font-size="14.00">grad &#45;1.5000</text>
</g>
<!-- 140438185915600&#45;&gt;140438194459216* -->
<g id="edge13" class="edge">
<title>140438185915600&#45;&gt;140438194459216*</title>
<path fill="none" stroke="black" d="M216.81,-165.07C226.74,-162.47 236.63,-159.61 246,-156.5 256.18,-153.12 266.94,-148.61 276.59,-144.2"/>
<polygon fill="black" stroke="black" points="277.99,-147.41 285.55,-139.98 275.01,-141.08 277.99,-147.41"/>
</g>
<!-- 140438197495120 -->
<g id="node8" class="node">
<title>140438197495120</title>
<polygon fill="none" stroke="black" points="1188.75,-109.5 1188.75,-145.5 1418.25,-145.5 1418.25,-109.5 1188.75,-109.5"/>
<text xml:space="preserve" text-anchor="middle" x="1201.25" y="-123.2" font-family="Times,serif" font-size="14.00">n</text>
<polyline fill="none" stroke="black" points="1213.75,-110.25 1213.75,-145.5"/>
<text xml:space="preserve" text-anchor="middle" x="1264.5" y="-123.2" font-family="Times,serif" font-size="14.00">data 0.8814</text>
<polyline fill="none" stroke="black" points="1315.25,-110.25 1315.25,-145.5"/>
<text xml:space="preserve" text-anchor="middle" x="1366.75" y="-123.2" font-family="Times,serif" font-size="14.00">grad 0.5000</text>
</g>
<!-- 140438183586640tanh -->
<g id="node11" class="node">
<title>140438183586640tanh</title>
<ellipse fill="none" stroke="black" cx="1488.1" cy="-127.5" rx="33.85" ry="18"/>
<text xml:space="preserve" text-anchor="middle" x="1488.1" y="-122.83" font-family="Times,serif" font-size="14.00">tanh</text>
</g>
<!-- 140438197495120&#45;&gt;140438183586640tanh -->
<g id="edge11" class="edge">
<title>140438197495120&#45;&gt;140438183586640tanh</title>
<path fill="none" stroke="black" d="M1418.58,-127.5C1427.01,-127.5 1435.15,-127.5 1442.71,-127.5"/>
<polygon fill="black" stroke="black" points="1442.54,-131 1452.54,-127.5 1442.54,-124 1442.54,-131"/>
</g>
<!-- 140438197495120+&#45;&gt;140438197495120 -->
<g id="edge3" class="edge">
<title>140438197495120+&#45;&gt;140438197495120</title>
<path fill="none" stroke="black" d="M1153.06,-127.5C1160.13,-127.5 1168.27,-127.5 1177.02,-127.5"/>
<polygon fill="black" stroke="black" points="1176.89,-131 1186.89,-127.5 1176.89,-124 1176.89,-131"/>
</g>
<!-- 140438183586640 -->
<g id="node10" class="node">
<title>140438183586640</title>
<polygon fill="none" stroke="black" points="1557.94,-109.5 1557.94,-145.5 1786.69,-145.5 1786.69,-109.5 1557.94,-109.5"/>
<text xml:space="preserve" text-anchor="middle" x="1570.07" y="-123.2" font-family="Times,serif" font-size="14.00">o</text>
<polyline fill="none" stroke="black" points="1582.19,-110.25 1582.19,-145.5"/>
<text xml:space="preserve" text-anchor="middle" x="1632.94" y="-123.2" font-family="Times,serif" font-size="14.00">data 0.7071</text>
<polyline fill="none" stroke="black" points="1683.69,-110.25 1683.69,-145.5"/>
<text xml:space="preserve" text-anchor="middle" x="1735.19" y="-123.2" font-family="Times,serif" font-size="14.00">grad 1.0000</text>
</g>
<!-- 140438183586640tanh&#45;&gt;140438183586640 -->
<g id="edge4" class="edge">
<title>140438183586640tanh&#45;&gt;140438183586640</title>
<path fill="none" stroke="black" d="M1522.1,-127.5C1529.45,-127.5 1537.67,-127.5 1546.38,-127.5"/>
<polygon fill="black" stroke="black" points="1546.11,-131 1556.11,-127.5 1546.11,-124 1546.11,-131"/>
</g>
<!-- 140438182365040 -->
<g id="node12" class="node">
<title>140438182365040</title>
<polygon fill="none" stroke="black" points="0,-110.5 0,-146.5 246,-146.5 246,-110.5 0,-110.5"/>
<text xml:space="preserve" text-anchor="middle" x="18.5" y="-124.2" font-family="Times,serif" font-size="14.00">w1</text>
<polyline fill="none" stroke="black" points="37,-111.25 37,-146.5"/>
<text xml:space="preserve" text-anchor="middle" x="90" y="-124.2" font-family="Times,serif" font-size="14.00">data &#45;3.0000</text>
<polyline fill="none" stroke="black" points="143,-111.25 143,-146.5"/>
<text xml:space="preserve" text-anchor="middle" x="194.5" y="-124.2" font-family="Times,serif" font-size="14.00">grad 1.0000</text>
</g>
<!-- 140438182365040&#45;&gt;140438194459216* -->
<g id="edge10" class="edge">
<title>140438182365040&#45;&gt;140438194459216*</title>
<path fill="none" stroke="black" d="M246.47,-128.5C254.97,-128.5 263.07,-128.5 270.44,-128.5"/>
<polygon fill="black" stroke="black" points="270.23,-132 280.23,-128.5 270.23,-125 270.23,-132"/>
</g>
<!-- 140438185916240 -->
<g id="node13" class="node">
<title>140438185916240</title>
<polygon fill="none" stroke="black" points="4.12,-0.5 4.12,-36.5 241.88,-36.5 241.88,-0.5 4.12,-0.5"/>
<text xml:space="preserve" text-anchor="middle" x="20.75" y="-14.2" font-family="Times,serif" font-size="14.00">x2</text>
<polyline fill="none" stroke="black" points="37.38,-1.25 37.38,-36.5"/>
<text xml:space="preserve" text-anchor="middle" x="88.12" y="-14.2" font-family="Times,serif" font-size="14.00">data 0.0000</text>
<polyline fill="none" stroke="black" points="138.88,-1.25 138.88,-36.5"/>
<text xml:space="preserve" text-anchor="middle" x="190.38" y="-14.2" font-family="Times,serif" font-size="14.00">grad 0.5000</text>
</g>
<!-- 140438185916240&#45;&gt;140438196125168* -->
<g id="edge14" class="edge">
<title>140438185916240&#45;&gt;140438196125168*</title>
<path fill="none" stroke="black" d="M213.15,-36.94C224.3,-39.84 235.47,-43.03 246,-46.5 256.05,-49.81 266.7,-54.13 276.29,-58.35"/>
<polygon fill="black" stroke="black" points="274.64,-61.44 285.2,-62.38 277.53,-55.07 274.64,-61.44"/>
</g>
<!-- 140438196125168 -->
<g id="node14" class="node">
<title>140438196125168</title>
<polygon fill="none" stroke="black" points="374.25,-55.5 374.25,-91.5 633,-91.5 633,-55.5 374.25,-55.5"/>
<text xml:space="preserve" text-anchor="middle" x="401.38" y="-69.2" font-family="Times,serif" font-size="14.00">x2w2</text>
<polyline fill="none" stroke="black" points="428.5,-56.25 428.5,-91.5"/>
<text xml:space="preserve" text-anchor="middle" x="479.25" y="-69.2" font-family="Times,serif" font-size="14.00">data 0.0000</text>
<polyline fill="none" stroke="black" points="530,-56.25 530,-91.5"/>
<text xml:space="preserve" text-anchor="middle" x="581.5" y="-69.2" font-family="Times,serif" font-size="14.00">grad 0.5000</text>
</g>
<!-- 140438196125168&#45;&gt;140438184265936+ -->
<g id="edge7" class="edge">
<title>140438196125168&#45;&gt;140438184265936+</title>
<path fill="none" stroke="black" d="M633.38,-91.55C642.99,-92.89 652.11,-94.17 660.3,-95.32"/>
<polygon fill="black" stroke="black" points="659.68,-98.77 670.07,-96.69 660.65,-91.84 659.68,-98.77"/>
</g>
<!-- 140438196125168*&#45;&gt;140438196125168 -->
<g id="edge5" class="edge">
<title>140438196125168*&#45;&gt;140438196125168</title>
<path fill="none" stroke="black" d="M336.38,-73.5C343.93,-73.5 352.73,-73.5 362.27,-73.5"/>
<polygon fill="black" stroke="black" points="362.25,-77 372.25,-73.5 362.25,-70 362.25,-77"/>
</g>
</g>
</svg>
